<svg width="182" height="35" viewBox="0 0 182 35" fill="none" xmlns="http://www.w3.org/2000/svg">
<path d="M7.305 34H0.465V2.59H15.36C16.8 2.59 18.105 2.83 19.275 3.31C20.445 3.79 21.435 4.48 22.245 5.38C23.085 6.25 23.73 7.3 24.18 8.53C24.63 9.76 24.855 11.125 24.855 12.625C24.855 14.755 24.375 16.615 23.415 18.205C22.485 19.795 21.06 20.95 19.14 21.67L25.305 34H17.7L12.21 22.48H7.305V34ZM14.505 16.72C15.525 16.72 16.32 16.465 16.89 15.955C17.49 15.415 17.79 14.635 17.79 13.615V11.635C17.79 10.615 17.49 9.85 16.89 9.34C16.32 8.8 15.525 8.53 14.505 8.53H7.305V16.72H14.505ZM47.6102 2.59V24.91C47.6102 26.35 47.3702 27.67 46.8902 28.87C46.4402 30.04 45.7652 31.045 44.8652 31.885C43.9652 32.695 42.8702 33.34 41.5802 33.82C40.3202 34.27 38.8802 34.495 37.2602 34.495C35.7002 34.495 34.3202 34.285 33.1202 33.865C31.9502 33.445 30.9302 32.845 30.0602 32.065C29.2202 31.285 28.5302 30.355 27.9902 29.275C27.4502 28.195 27.0752 26.995 26.8652 25.675L33.2552 24.415C33.7652 27.145 35.0702 28.51 37.1702 28.51C38.1602 28.51 39.0002 28.195 39.6902 27.565C40.4102 26.935 40.7702 25.945 40.7702 24.595V8.08H31.2302V2.59H47.6102Z" fill="white"/>
<path d="M61.992 34.54C59.712 34.54 57.792 34.18 56.232 33.46C54.672 32.71 53.277 31.66 52.047 30.31L55.962 26.35C56.802 27.28 57.732 28.015 58.752 28.555C59.772 29.095 60.927 29.365 62.217 29.365C63.537 29.365 64.452 29.17 64.962 28.78C65.472 28.36 65.727 27.805 65.727 27.115C65.727 26.005 64.932 25.345 63.342 25.135L60.777 24.82C55.467 24.16 52.812 21.73 52.812 17.53C52.812 16.39 53.022 15.355 53.442 14.425C53.892 13.465 54.507 12.655 55.287 11.995C56.097 11.305 57.057 10.78 58.167 10.42C59.307 10.03 60.582 9.835 61.992 9.835C63.222 9.835 64.302 9.925 65.232 10.105C66.192 10.255 67.032 10.495 67.752 10.825C68.502 11.125 69.177 11.515 69.777 11.995C70.407 12.445 71.022 12.955 71.622 13.525L67.797 17.44C67.047 16.69 66.192 16.105 65.232 15.685C64.302 15.235 63.342 15.01 62.352 15.01C61.212 15.01 60.402 15.19 59.922 15.55C59.442 15.91 59.202 16.39 59.202 16.99C59.202 17.62 59.367 18.115 59.697 18.475C60.057 18.805 60.717 19.045 61.677 19.195L64.332 19.555C69.522 20.245 72.117 22.615 72.117 26.665C72.117 27.805 71.877 28.855 71.397 29.815C70.917 30.775 70.227 31.615 69.327 32.335C68.457 33.025 67.392 33.565 66.132 33.955C64.902 34.345 63.522 34.54 61.992 34.54ZM84.5862 34C82.2762 34 80.5212 33.415 79.3212 32.245C78.1512 31.075 77.5662 29.365 77.5662 27.115V15.55H74.2362V10.375H75.9012C76.8012 10.375 77.4162 10.165 77.7462 9.745C78.0762 9.295 78.2412 8.665 78.2412 7.855V3.985H84.2262V10.375H88.9062V15.55H84.2262V28.825H88.5462V34H84.5862ZM107.483 30.04H107.258C107.048 30.64 106.763 31.21 106.403 31.75C106.073 32.29 105.638 32.77 105.098 33.19C104.558 33.61 103.913 33.94 103.163 34.18C102.443 34.42 101.603 34.54 100.643 34.54C98.2127 34.54 96.3677 33.745 95.1077 32.155C93.8777 30.535 93.2627 28.225 93.2627 25.225V10.375H99.9227V24.64C99.9227 26.08 100.178 27.19 100.688 27.97C101.198 28.75 102.068 29.14 103.298 29.14C103.808 29.14 104.318 29.065 104.828 28.915C105.338 28.765 105.788 28.555 106.178 28.285C106.568 27.985 106.883 27.625 107.123 27.205C107.363 26.785 107.483 26.29 107.483 25.72V10.375H114.143V34H107.483V30.04ZM134.829 30.04H134.604C134.424 30.67 134.139 31.27 133.749 31.84C133.359 32.38 132.879 32.86 132.309 33.28C131.769 33.67 131.139 33.97 130.419 34.18C129.729 34.42 129.009 34.54 128.259 34.54C125.259 34.54 122.994 33.49 121.464 31.39C119.934 29.26 119.169 26.185 119.169 22.165C119.169 18.145 119.934 15.085 121.464 12.985C122.994 10.885 125.259 9.835 128.259 9.835C129.789 9.835 131.139 10.255 132.309 11.095C133.509 11.935 134.274 13.015 134.604 14.335H134.829V0.7H141.489V34H134.829V30.04ZM130.464 29.14C131.724 29.14 132.759 28.84 133.569 28.24C134.409 27.61 134.829 26.755 134.829 25.675V18.7C134.829 17.62 134.409 16.78 133.569 16.18C132.759 15.55 131.724 15.235 130.464 15.235C129.204 15.235 128.154 15.685 127.314 16.585C126.504 17.455 126.099 18.64 126.099 20.14V24.235C126.099 25.735 126.504 26.935 127.314 27.835C128.154 28.705 129.204 29.14 130.464 29.14ZM151.047 7.855C149.697 7.855 148.707 7.555 148.077 6.955C147.477 6.325 147.177 5.53 147.177 4.57V3.58C147.177 2.62 147.477 1.84 148.077 1.24C148.707 0.609999 149.697 0.294999 151.047 0.294999C152.397 0.294999 153.372 0.609999 153.972 1.24C154.602 1.84 154.917 2.62 154.917 3.58V4.57C154.917 5.53 154.602 6.325 153.972 6.955C153.372 7.555 152.397 7.855 151.047 7.855ZM147.717 10.375H154.377V34H147.717V10.375ZM170.178 34.54C168.438 34.54 166.878 34.255 165.498 33.685C164.148 33.115 162.993 32.29 162.033 31.21C161.103 30.13 160.383 28.825 159.873 27.295C159.363 25.765 159.108 24.055 159.108 22.165C159.108 20.275 159.363 18.565 159.873 17.035C160.383 15.505 161.103 14.215 162.033 13.165C162.993 12.085 164.148 11.26 165.498 10.69C166.878 10.12 168.438 9.835 170.178 9.835C171.918 9.835 173.463 10.12 174.813 10.69C176.193 11.26 177.348 12.085 178.278 13.165C179.238 14.215 179.973 15.505 180.483 17.035C180.993 18.565 181.248 20.275 181.248 22.165C181.248 24.055 180.993 25.765 180.483 27.295C179.973 28.825 179.238 30.13 178.278 31.21C177.348 32.29 176.193 33.115 174.813 33.685C173.463 34.255 171.918 34.54 170.178 34.54ZM170.178 29.275C171.498 29.275 172.518 28.87 173.238 28.06C173.958 27.25 174.318 26.095 174.318 24.595V19.78C174.318 18.28 173.958 17.125 173.238 16.315C172.518 15.505 171.498 15.1 170.178 15.1C168.858 15.1 167.838 15.505 167.118 16.315C166.398 17.125 166.038 18.28 166.038 19.78V24.595C166.038 26.095 166.398 27.25 167.118 28.06C167.838 28.87 168.858 29.275 170.178 29.275Z" fill="#CECECE"/>
</svg>
