<svg width="182" height="36" viewBox="0 0 182 36" fill="none" xmlns="http://www.w3.org/2000/svg">
<path d="M7.305 34.5H0.465V3.09H15.36C16.8 3.09 18.105 3.33 19.275 3.81C20.445 4.29 21.435 4.98 22.245 5.88C23.085 6.75 23.73 7.8 24.18 9.03C24.63 10.26 24.855 11.625 24.855 13.125C24.855 15.255 24.375 17.115 23.415 18.705C22.485 20.295 21.06 21.45 19.14 22.17L25.305 34.5H17.7L12.21 22.98H7.305V34.5ZM14.505 17.22C15.525 17.22 16.32 16.965 16.89 16.455C17.49 15.915 17.79 15.135 17.79 14.115V12.135C17.79 11.115 17.49 10.35 16.89 9.84C16.32 9.3 15.525 9.03 14.505 9.03H7.305V17.22H14.505ZM47.6102 3.09V25.41C47.6102 26.85 47.3702 28.17 46.8902 29.37C46.4402 30.54 45.7652 31.545 44.8652 32.385C43.9652 33.195 42.8702 33.84 41.5802 34.32C40.3202 34.77 38.8802 34.995 37.2602 34.995C35.7002 34.995 34.3202 34.785 33.1202 34.365C31.9502 33.945 30.9302 33.345 30.0602 32.565C29.2202 31.785 28.5302 30.855 27.9902 29.775C27.4502 28.695 27.0752 27.495 26.8652 26.175L33.2552 24.915C33.7652 27.645 35.0702 29.01 37.1702 29.01C38.1602 29.01 39.0002 28.695 39.6902 28.065C40.4102 27.435 40.7702 26.445 40.7702 25.095V8.58H31.2302V3.09H47.6102Z" fill="#940C1C"/>
<path d="M61.992 35.04C59.712 35.04 57.792 34.68 56.232 33.96C54.672 33.21 53.277 32.16 52.047 30.81L55.962 26.85C56.802 27.78 57.732 28.515 58.752 29.055C59.772 29.595 60.927 29.865 62.217 29.865C63.537 29.865 64.452 29.67 64.962 29.28C65.472 28.86 65.727 28.305 65.727 27.615C65.727 26.505 64.932 25.845 63.342 25.635L60.777 25.32C55.467 24.66 52.812 22.23 52.812 18.03C52.812 16.89 53.022 15.855 53.442 14.925C53.892 13.965 54.507 13.155 55.287 12.495C56.097 11.805 57.057 11.28 58.167 10.92C59.307 10.53 60.582 10.335 61.992 10.335C63.222 10.335 64.302 10.425 65.232 10.605C66.192 10.755 67.032 10.995 67.752 11.325C68.502 11.625 69.177 12.015 69.777 12.495C70.407 12.945 71.022 13.455 71.622 14.025L67.797 17.94C67.047 17.19 66.192 16.605 65.232 16.185C64.302 15.735 63.342 15.51 62.352 15.51C61.212 15.51 60.402 15.69 59.922 16.05C59.442 16.41 59.202 16.89 59.202 17.49C59.202 18.12 59.367 18.615 59.697 18.975C60.057 19.305 60.717 19.545 61.677 19.695L64.332 20.055C69.522 20.745 72.117 23.115 72.117 27.165C72.117 28.305 71.877 29.355 71.397 30.315C70.917 31.275 70.227 32.115 69.327 32.835C68.457 33.525 67.392 34.065 66.132 34.455C64.902 34.845 63.522 35.04 61.992 35.04ZM84.5862 34.5C82.2762 34.5 80.5212 33.915 79.3212 32.745C78.1512 31.575 77.5662 29.865 77.5662 27.615V16.05H74.2362V10.875H75.9012C76.8012 10.875 77.4162 10.665 77.7462 10.245C78.0762 9.795 78.2412 9.165 78.2412 8.355V4.485H84.2262V10.875H88.9062V16.05H84.2262V29.325H88.5462V34.5H84.5862ZM107.483 30.54H107.258C107.048 31.14 106.763 31.71 106.403 32.25C106.073 32.79 105.638 33.27 105.098 33.69C104.558 34.11 103.913 34.44 103.163 34.68C102.443 34.92 101.603 35.04 100.643 35.04C98.2127 35.04 96.3677 34.245 95.1077 32.655C93.8777 31.035 93.2627 28.725 93.2627 25.725V10.875H99.9227V25.14C99.9227 26.58 100.178 27.69 100.688 28.47C101.198 29.25 102.068 29.64 103.298 29.64C103.808 29.64 104.318 29.565 104.828 29.415C105.338 29.265 105.788 29.055 106.178 28.785C106.568 28.485 106.883 28.125 107.123 27.705C107.363 27.285 107.483 26.79 107.483 26.22V10.875H114.143V34.5H107.483V30.54ZM134.829 30.54H134.604C134.424 31.17 134.139 31.77 133.749 32.34C133.359 32.88 132.879 33.36 132.309 33.78C131.769 34.17 131.139 34.47 130.419 34.68C129.729 34.92 129.009 35.04 128.259 35.04C125.259 35.04 122.994 33.99 121.464 31.89C119.934 29.76 119.169 26.685 119.169 22.665C119.169 18.645 119.934 15.585 121.464 13.485C122.994 11.385 125.259 10.335 128.259 10.335C129.789 10.335 131.139 10.755 132.309 11.595C133.509 12.435 134.274 13.515 134.604 14.835H134.829V1.2H141.489V34.5H134.829V30.54ZM130.464 29.64C131.724 29.64 132.759 29.34 133.569 28.74C134.409 28.11 134.829 27.255 134.829 26.175V19.2C134.829 18.12 134.409 17.28 133.569 16.68C132.759 16.05 131.724 15.735 130.464 15.735C129.204 15.735 128.154 16.185 127.314 17.085C126.504 17.955 126.099 19.14 126.099 20.64V24.735C126.099 26.235 126.504 27.435 127.314 28.335C128.154 29.205 129.204 29.64 130.464 29.64ZM151.047 8.355C149.697 8.355 148.707 8.055 148.077 7.455C147.477 6.825 147.177 6.03 147.177 5.07V4.08C147.177 3.12 147.477 2.34 148.077 1.74C148.707 1.11 149.697 0.794999 151.047 0.794999C152.397 0.794999 153.372 1.11 153.972 1.74C154.602 2.34 154.917 3.12 154.917 4.08V5.07C154.917 6.03 154.602 6.825 153.972 7.455C153.372 8.055 152.397 8.355 151.047 8.355ZM147.717 10.875H154.377V34.5H147.717V10.875ZM170.178 35.04C168.438 35.04 166.878 34.755 165.498 34.185C164.148 33.615 162.993 32.79 162.033 31.71C161.103 30.63 160.383 29.325 159.873 27.795C159.363 26.265 159.108 24.555 159.108 22.665C159.108 20.775 159.363 19.065 159.873 17.535C160.383 16.005 161.103 14.715 162.033 13.665C162.993 12.585 164.148 11.76 165.498 11.19C166.878 10.62 168.438 10.335 170.178 10.335C171.918 10.335 173.463 10.62 174.813 11.19C176.193 11.76 177.348 12.585 178.278 13.665C179.238 14.715 179.973 16.005 180.483 17.535C180.993 19.065 181.248 20.775 181.248 22.665C181.248 24.555 180.993 26.265 180.483 27.795C179.973 29.325 179.238 30.63 178.278 31.71C177.348 32.79 176.193 33.615 174.813 34.185C173.463 34.755 171.918 35.04 170.178 35.04ZM170.178 29.775C171.498 29.775 172.518 29.37 173.238 28.56C173.958 27.75 174.318 26.595 174.318 25.095V20.28C174.318 18.78 173.958 17.625 173.238 16.815C172.518 16.005 171.498 15.6 170.178 15.6C168.858 15.6 167.838 16.005 167.118 16.815C166.398 17.625 166.038 18.78 166.038 20.28V25.095C166.038 26.595 166.398 27.75 167.118 28.56C167.838 29.37 168.858 29.775 170.178 29.775Z" fill="#2E1C1E"/>
</svg>
